<?xml version="1.0" encoding="UTF-8"?>
<svg width="25px" height="25px" viewBox="0 0 25 25" version="1.1" xmlns="http://www.w3.org/2000/svg" xmlns:xlink="http://www.w3.org/1999/xlink">
    <!-- Generator: Sketch 52.5 (67469) - http://www.bohemiancoding.com/sketch -->
    <title>ic_fullscreen</title>
    <desc>Created with Sketch.</desc>
    <g id="ic_fullscreen" stroke="none" stroke-width="1" fill="none" fill-rule="evenodd">
        <g id="Group-26" transform="translate(3.000000, 3.000000)" fill="#444444" fill-rule="nonzero">
            <path d="M3,3 L3,7.5 C3,7.77614237 2.77614237,8 2.5,8 L0.5,8 C0.223857625,8 3.38176876e-17,7.77614237 0,7.5 L0,0.5 C-3.38176876e-17,0.223857625 0.223857625,5.07265313e-17 0.5,0 L7.5,0 C7.77614237,-5.07265313e-17 8,0.223857625 8,0.5 L8,2.5 C8,2.77614237 7.77614237,3 7.5,3 L3,3 Z" id="Path-4"></path>
            <path d="M3,16 L7.5,16 C7.77614237,16 8,16.2238576 8,16.5 L8,18.5 C8,18.7761424 7.77614237,19 7.5,19 L0.5,19 C0.223857625,19 -3.38176876e-17,18.7761424 0,18.5 L0,11.5 C3.38176876e-17,11.2238576 0.223857625,11 0.5,11 L2.5,11 C2.77614237,11 3,11.2238576 3,11.5 L3,16 Z" id="Path-4-Copy-4"></path>
            <path d="M17,16 L17,11.5 C17,11.2238576 17.2238576,11 17.5,11 L19.5,11 C19.7761424,11 20,11.2238576 20,11.5 L20,18.5 C20,18.7761424 19.7761424,19 19.5,19 L12.5,19 C12.2238576,19 12,18.7761424 12,18.5 L12,16.5 C12,16.2238576 12.2238576,16 12.5,16 L17,16 Z" id="Path-4-Copy-5"></path>
            <path d="M17,3 L12.5,3 C12.2238576,3 12,2.77614237 12,2.5 L12,0.5 C12,0.223857625 12.2238576,-5.07265313e-17 12.5,0 L19.5,0 C19.7761424,5.07265313e-17 20,0.223857625 20,0.5 L20,7.5 C20,7.77614237 19.7761424,8 19.5,8 L17.5,8 C17.2238576,8 17,7.77614237 17,7.5 L17,3 Z" id="Path-4-Copy-6"></path>
        </g>
    </g>
</svg>